<svg width="54" height="54" viewBox="0 0 54 54" fill="none" xmlns="http://www.w3.org/2000/svg">
<circle cx="27" cy="27" r="27" fill="#E9E6E6"/>
<g clip-path="url(#clip0_72_65)">
<path d="M37.2143 14.75H34.4286V11.7031C34.4286 11.3148 34.1167 11 33.7321 11H31.4107C31.0261 11 30.7143 11.3148 30.7143 11.7031V14.75H23.2857V11.7031C23.2857 11.3148 22.9739 11 22.5893 11H20.2679C19.8833 11 19.5714 11.3148 19.5714 11.7031V14.75H16.7857C15.2472 14.75 14 16.0092 14 17.5625V38.1875C14 39.7408 15.2472 41 16.7857 41H37.2143C38.7528 41 40 39.7408 40 38.1875V17.5625C40 16.0092 38.7528 14.75 37.2143 14.75ZM36.8661 38.1875H17.1339C17.0416 38.1875 16.953 38.1505 16.8877 38.0845C16.8224 38.0186 16.7857 37.9292 16.7857 37.8359V20.375H37.2143V37.8359C37.2143 37.9292 37.1776 38.0186 37.1123 38.0845C37.047 38.1505 36.9584 38.1875 36.8661 38.1875ZM33.7989 26.4307L25.5399 34.7023C25.2669 34.9757 24.8259 34.974 24.555 34.6983L20.1971 30.2628C19.9262 29.9871 19.9279 29.5419 20.201 29.2684L21.5195 27.9479C21.7926 27.6745 22.2335 27.6763 22.5044 27.952L25.064 30.5571L31.5101 24.1012C31.7832 23.8278 32.2241 23.8295 32.4951 24.1052L33.8029 25.4363C34.0738 25.712 34.072 26.1572 33.7989 26.4307Z" fill="#3F3F3F"/>
</g>
<defs>
<clipPath id="clip0_72_65">
<rect width="26" height="30" fill="white" transform="translate(14 11)"/>
</clipPath>
</defs>
</svg>
